<svg width="179" height="39" viewBox="0 0 179 39" fill="none" xmlns="http://www.w3.org/2000/svg">
    <path d="M0 4C0 1.79086 1.79086 0 4 0H101V39H0V4Z" fill="#7480FF" />
    <path d="M92 0H179V35C179 37.2091 177.209 39 175 39H92V0Z" fill="#252B93" />
    <path
        d="M11.672 21.28C11.672 19.904 11.928 18.696 12.44 17.656C12.968 16.616 13.68 15.816 14.576 15.256C15.472 14.696 16.472 14.416 17.576 14.416C18.52 14.416 19.344 14.608 20.048 14.992C20.768 15.376 21.32 15.88 21.704 16.504V14.608H25.808V28H21.704V26.104C21.304 26.728 20.744 27.232 20.024 27.616C19.32 28 18.496 28.192 17.552 28.192C16.464 28.192 15.472 27.912 14.576 27.352C13.68 26.776 12.968 25.968 12.44 24.928C11.928 23.872 11.672 22.656 11.672 21.28ZM21.704 21.304C21.704 20.28 21.416 19.472 20.84 18.88C20.28 18.288 19.592 17.992 18.776 17.992C17.96 17.992 17.264 18.288 16.688 18.88C16.128 19.456 15.848 20.256 15.848 21.28C15.848 22.304 16.128 23.12 16.688 23.728C17.264 24.32 17.96 24.616 18.776 24.616C19.592 24.616 20.28 24.32 20.84 23.728C21.416 23.136 21.704 22.328 21.704 21.304ZM50.0011 14.608L46.3771 28H41.8411L39.7291 19.312L37.5451 28H33.0331L29.3851 14.608H33.4891L35.3851 24.184L37.6411 14.608H41.9851L44.2651 24.136L46.1371 14.608H50.0011ZM66.1901 21.088C66.1901 21.472 66.1661 21.872 66.1181 22.288H56.8301C56.8941 23.12 57.1581 23.76 57.6221 24.208C58.1021 24.64 58.6861 24.856 59.3741 24.856C60.3981 24.856 61.1101 24.424 61.5101 23.56H65.8781C65.6541 24.44 65.2461 25.232 64.6541 25.936C64.0781 26.64 63.3501 27.192 62.4701 27.592C61.5901 27.992 60.6061 28.192 59.5181 28.192C58.2061 28.192 57.0381 27.912 56.0141 27.352C54.9901 26.792 54.1901 25.992 53.6141 24.952C53.0381 23.912 52.7501 22.696 52.7501 21.304C52.7501 19.912 53.0301 18.696 53.5901 17.656C54.1661 16.616 54.9661 15.816 55.9901 15.256C57.0141 14.696 58.1901 14.416 59.5181 14.416C60.8141 14.416 61.9661 14.688 62.9741 15.232C63.9821 15.776 64.7661 16.552 65.3261 17.56C65.9021 18.568 66.1901 19.744 66.1901 21.088ZM61.9901 20.008C61.9901 19.304 61.7501 18.744 61.2701 18.328C60.7901 17.912 60.1901 17.704 59.4701 17.704C58.7821 17.704 58.1981 17.904 57.7181 18.304C57.2541 18.704 56.9661 19.272 56.8541 20.008H61.9901ZM75.8032 28.192C74.6352 28.192 73.5952 27.992 72.6832 27.592C71.7712 27.192 71.0512 26.648 70.5232 25.96C69.9952 25.256 69.6992 24.472 69.6352 23.608H73.6912C73.7392 24.072 73.9552 24.448 74.3392 24.736C74.7232 25.024 75.1952 25.168 75.7552 25.168C76.2672 25.168 76.6592 25.072 76.9312 24.88C77.2192 24.672 77.3632 24.408 77.3632 24.088C77.3632 23.704 77.1632 23.424 76.7632 23.248C76.3632 23.056 75.7152 22.848 74.8192 22.624C73.8592 22.4 73.0592 22.168 72.4192 21.928C71.7792 21.672 71.2272 21.28 70.7632 20.752C70.2992 20.208 70.0672 19.48 70.0672 18.568C70.0672 17.8 70.2752 17.104 70.6912 16.48C71.1232 15.84 71.7472 15.336 72.5632 14.968C73.3952 14.6 74.3792 14.416 75.5152 14.416C77.1952 14.416 78.5152 14.832 79.4752 15.664C80.4512 16.496 81.0112 17.6 81.1552 18.976H77.3632C77.2992 18.512 77.0912 18.144 76.7392 17.872C76.4032 17.6 75.9552 17.464 75.3952 17.464C74.9152 17.464 74.5472 17.56 74.2912 17.752C74.0352 17.928 73.9072 18.176 73.9072 18.496C73.9072 18.88 74.1072 19.168 74.5072 19.36C74.9232 19.552 75.5632 19.744 76.4272 19.936C77.4192 20.192 78.2272 20.448 78.8512 20.704C79.4752 20.944 80.0192 21.344 80.4832 21.904C80.9632 22.448 81.2112 23.184 81.2272 24.112C81.2272 24.896 81.0032 25.6 80.5552 26.224C80.1232 26.832 79.4912 27.312 78.6592 27.664C77.8432 28.016 76.8912 28.192 75.8032 28.192ZM91.834 28.192C90.522 28.192 89.338 27.912 88.282 27.352C87.242 26.792 86.418 25.992 85.81 24.952C85.218 23.912 84.922 22.696 84.922 21.304C84.922 19.928 85.226 18.72 85.834 17.68C86.442 16.624 87.274 15.816 88.33 15.256C89.386 14.696 90.57 14.416 91.882 14.416C93.194 14.416 94.378 14.696 95.434 15.256C96.49 15.816 97.322 16.624 97.93 17.68C98.538 18.72 98.842 19.928 98.842 21.304C98.842 22.68 98.53 23.896 97.906 24.952C97.298 25.992 96.458 26.792 95.386 27.352C94.33 27.912 93.146 28.192 91.834 28.192ZM91.834 24.64C92.618 24.64 93.282 24.352 93.826 23.776C94.386 23.2 94.666 22.376 94.666 21.304C94.666 20.232 94.394 19.408 93.85 18.832C93.322 18.256 92.666 17.968 91.882 17.968C91.082 17.968 90.418 18.256 89.89 18.832C89.362 19.392 89.098 20.216 89.098 21.304C89.098 22.376 89.354 23.2 89.866 23.776C90.394 24.352 91.05 24.64 91.834 24.64ZM120.107 14.464C121.771 14.464 123.091 14.968 124.067 15.976C125.059 16.984 125.555 18.384 125.555 20.176V28H121.475V20.728C121.475 19.864 121.243 19.2 120.779 18.736C120.331 18.256 119.707 18.016 118.907 18.016C118.107 18.016 117.475 18.256 117.011 18.736C116.563 19.2 116.339 19.864 116.339 20.728V28H112.259V20.728C112.259 19.864 112.027 19.2 111.563 18.736C111.115 18.256 110.491 18.016 109.691 18.016C108.891 18.016 108.259 18.256 107.795 18.736C107.347 19.2 107.123 19.864 107.123 20.728V28H103.019V14.608H107.123V16.288C107.539 15.728 108.083 15.288 108.755 14.968C109.427 14.632 110.187 14.464 111.035 14.464C112.043 14.464 112.939 14.68 113.723 15.112C114.523 15.544 115.147 16.16 115.595 16.96C116.059 16.224 116.691 15.624 117.491 15.16C118.291 14.696 119.163 14.464 120.107 14.464ZM132.49 13.216C131.77 13.216 131.178 13.008 130.714 12.592C130.266 12.16 130.042 11.632 130.042 11.008C130.042 10.368 130.266 9.84 130.714 9.424C131.178 8.992 131.77 8.776 132.49 8.776C133.194 8.776 133.77 8.992 134.218 9.424C134.682 9.84 134.914 10.368 134.914 11.008C134.914 11.632 134.682 12.16 134.218 12.592C133.77 13.008 133.194 13.216 132.49 13.216ZM134.53 14.608V28H130.426V14.608H134.53ZM143.344 24.616H149.152V28H138.76V24.736L144.328 17.992H138.808V14.608H149.032V17.872L143.344 24.616ZM166.034 21.088C166.034 21.472 166.01 21.872 165.962 22.288H156.674C156.738 23.12 157.002 23.76 157.466 24.208C157.946 24.64 158.53 24.856 159.218 24.856C160.242 24.856 160.954 24.424 161.354 23.56H165.722C165.498 24.44 165.09 25.232 164.498 25.936C163.922 26.64 163.194 27.192 162.314 27.592C161.434 27.992 160.45 28.192 159.362 28.192C158.05 28.192 156.882 27.912 155.858 27.352C154.834 26.792 154.034 25.992 153.458 24.952C152.882 23.912 152.594 22.696 152.594 21.304C152.594 19.912 152.874 18.696 153.434 17.656C154.01 16.616 154.81 15.816 155.834 15.256C156.858 14.696 158.034 14.416 159.362 14.416C160.658 14.416 161.81 14.688 162.818 15.232C163.826 15.776 164.61 16.552 165.17 17.56C165.746 18.568 166.034 19.744 166.034 21.088ZM161.834 20.008C161.834 19.304 161.594 18.744 161.114 18.328C160.634 17.912 160.034 17.704 159.314 17.704C158.626 17.704 158.042 17.904 157.562 18.304C157.098 18.704 156.81 19.272 156.698 20.008H161.834Z"
        fill="white" />
</svg>