<svg width="24" height="24" viewBox="0 0 24 24" fill="none" xmlns="http://www.w3.org/2000/svg">
<path fill-rule="evenodd" clip-rule="evenodd" d="M12 3.5C7.313 3.5 3.5 7.313 3.5 12C3.5 16.687 7.313 20.5 12 20.5C16.687 20.5 20.5 16.687 20.5 12C20.5 7.313 16.687 3.5 12 3.5ZM12 22C6.486 22 2 17.514 2 12C2 6.486 6.486 2 12 2C17.514 2 22 6.486 22 12C22 17.514 17.514 22 12 22Z" fill="#545FDB"/>
<path fill-rule="evenodd" clip-rule="evenodd" d="M13.4425 16.2206C13.2515 16.2206 13.0595 16.1476 12.9135 16.0016L9.42654 12.5316C9.28554 12.3906 9.20654 12.1996 9.20654 11.9996C9.20654 11.8006 9.28554 11.6096 9.42654 11.4686L12.9135 7.99756C13.2065 7.70556 13.6805 7.70556 13.9735 7.99956C14.2665 8.29356 14.2645 8.76856 13.9715 9.06056L11.0195 11.9996L13.9715 14.9396C14.2645 15.2316 14.2665 15.7056 13.9735 15.9996C13.8275 16.1476 13.6345 16.2206 13.4425 16.2206Z" fill="#545FDB"/>
</svg>
