<svg width="24" height="24" viewBox="0 0 24 24" fill="none" xmlns="http://www.w3.org/2000/svg">
<path fill-rule="evenodd" clip-rule="evenodd" d="M12 3.5C7.313 3.5 3.5 7.313 3.5 12C3.5 16.687 7.313 20.5 12 20.5C16.687 20.5 20.5 16.687 20.5 12C20.5 7.313 16.687 3.5 12 3.5ZM12 22C6.486 22 2 17.514 2 12C2 6.486 6.486 2 12 2C17.514 2 22 6.486 22 12C22 17.514 17.514 22 12 22Z" fill="#545FDB"/>
<path fill-rule="evenodd" clip-rule="evenodd" d="M10.5585 16.2206C10.3665 16.2206 10.1735 16.1476 10.0275 15.9996C9.73546 15.7056 9.73646 15.2316 10.0295 14.9396L12.9815 11.9996L10.0295 9.06056C9.73646 8.76856 9.73546 8.29356 10.0275 7.99956C10.3195 7.70456 10.7935 7.70656 11.0875 7.99756L14.5735 11.4686C14.7145 11.6096 14.7935 11.8006 14.7935 11.9996C14.7935 12.1996 14.7145 12.3906 14.5735 12.5316L11.0875 16.0016C10.9415 16.1476 10.7495 16.2206 10.5585 16.2206Z" fill="#545FDB"/>
</svg>
