<svg width="24" height="24" viewBox="0 0 24 24" fill="none" xmlns="http://www.w3.org/2000/svg">
<mask id="mask0" mask-type="alpha" maskUnits="userSpaceOnUse" x="2" y="2" width="21" height="21">
<path fill-rule="evenodd" clip-rule="evenodd" d="M2.00049 2H22.5001V22.4995H2.00049V2Z" fill="white"/>
</mask>
<g mask="url(#mask0)">
<path fill-rule="evenodd" clip-rule="evenodd" d="M4.35957 5.06067C4.36157 5.06067 4.31157 5.11266 4.24857 5.17466C4.00657 5.40966 3.50557 5.89866 3.50057 6.92167C3.49257 8.35266 4.43357 11.0097 8.96457 15.5397C13.4746 20.0477 16.1276 20.9997 17.5616 20.9997H17.5826C18.6056 20.9947 19.0936 20.4927 19.3296 20.2517C19.4016 20.1777 19.4596 20.1237 19.5006 20.0897C20.4966 19.0877 21.0066 18.3417 21.0016 17.8637C20.9946 17.3757 20.3876 16.7987 19.5486 16.0007C19.2816 15.7467 18.9916 15.4707 18.6856 15.1647C17.8926 14.3737 17.4996 14.5087 16.6356 14.8127C15.4406 15.2317 13.8006 15.8017 11.2526 13.2527C8.70057 10.7027 9.27157 9.06466 9.68957 7.86967C9.99157 7.00566 10.1296 6.61167 9.33557 5.81767C9.02457 5.50767 8.74557 5.21367 8.48857 4.94367C7.69557 4.10966 7.12357 3.50666 6.63857 3.49967H6.63057C6.15157 3.49967 5.40757 4.01167 4.35457 5.06467C4.35757 5.06167 4.35857 5.06067 4.35957 5.06067ZM17.5626 22.4997C15.0706 22.4997 11.8216 20.5157 7.90457 16.6007C3.97257 12.6697 1.98557 9.41067 2.00057 6.91367C2.00957 5.26367 2.87457 4.41866 3.19957 4.10167C3.21657 4.08067 3.27457 4.02366 3.29457 4.00366C4.72857 2.56867 5.69557 1.98867 6.65757 1.99967C7.77457 2.01467 8.56957 2.85067 9.57557 3.90967C9.82457 4.17167 10.0946 4.45667 10.3956 4.75666C11.8556 6.21667 11.4396 7.40767 11.1056 8.36367C10.7416 9.40666 10.4266 10.3067 12.3126 12.1927C14.2006 14.0787 15.1006 13.7637 16.1396 13.3967C17.0966 13.0627 18.2846 12.6447 19.7466 14.1047C20.0426 14.4007 20.3236 14.6677 20.5826 14.9147C21.6466 15.9257 22.4866 16.7247 22.5006 17.8447C22.5126 18.7997 21.9326 19.7727 20.5006 21.2057L19.8666 20.7757L20.4026 21.2997C20.0856 21.6247 19.2416 22.4907 17.5906 22.4997H17.5626Z" fill="#545FDB"/>
</g>
</svg>
