<svg width="24" height="24" viewBox="0 0 24 24" fill="none" xmlns="http://www.w3.org/2000/svg">
<mask id="mask0" mask-type="alpha" maskUnits="userSpaceOnUse" x="14" y="2" width="9" height="9">
<path fill-rule="evenodd" clip-rule="evenodd" d="M14.354 2.00049H22.893V10.5333H14.354V2.00049Z" fill="white"/>
</mask>
<g mask="url(#mask0)">
<path fill-rule="evenodd" clip-rule="evenodd" d="M22.1427 10.5333C21.7657 10.5333 21.4417 10.2503 21.3987 9.8673C21.0197 6.4913 18.3977 3.8713 15.0207 3.4963C14.6097 3.4503 14.3127 3.0803 14.3587 2.6683C14.4037 2.2573 14.7707 1.9543 15.1867 2.0063C19.2647 2.4593 22.4317 5.6223 22.8887 9.6993C22.9347 10.1113 22.6387 10.4823 22.2277 10.5283C22.1997 10.5313 22.1707 10.5333 22.1427 10.5333Z" fill="#545FDB"/>
</g>
<path fill-rule="evenodd" clip-rule="evenodd" d="M18.6024 10.5442C18.2504 10.5442 17.9374 10.2962 17.8674 9.93815C17.5794 8.45815 16.4384 7.31715 14.9604 7.03015C14.5534 6.95115 14.2884 6.55815 14.3674 6.15115C14.4464 5.74415 14.8464 5.47815 15.2464 5.55815C17.3274 5.96215 18.9344 7.56815 19.3394 9.65015C19.4184 10.0582 19.1534 10.4512 18.7474 10.5302C18.6984 10.5392 18.6504 10.5442 18.6024 10.5442Z" fill="#545FDB"/>
<mask id="mask1" mask-type="alpha" maskUnits="userSpaceOnUse" x="2" y="2" width="21" height="21">
<path fill-rule="evenodd" clip-rule="evenodd" d="M2.00049 2H22.5007V22.5005H2.00049V2Z" fill="white"/>
</mask>
<g mask="url(#mask1)">
<path fill-rule="evenodd" clip-rule="evenodd" d="M4.35957 5.06154C4.36157 5.06154 4.31157 5.11354 4.24857 5.17554C4.00657 5.41054 3.50557 5.89954 3.50057 6.92254C3.49257 8.35354 4.43357 11.0105 8.96457 15.5405C13.4736 20.0485 16.1266 21.0005 17.5616 21.0005H17.5826C18.6056 20.9945 19.0936 20.4935 19.3286 20.2525C19.3996 20.1795 19.4576 20.1245 19.4986 20.0915C20.4956 19.0885 21.0056 18.3435 21.0006 17.8645C20.9946 17.3765 20.3876 16.8005 19.5486 16.0015C19.2816 15.7485 18.9916 15.4715 18.6856 15.1655C17.8916 14.3745 17.5006 14.5095 16.6356 14.8135C15.4406 15.2325 13.8036 15.8065 11.2526 13.2535C8.70057 10.7025 9.27257 9.06554 9.68957 7.86954C9.99157 7.00554 10.1296 6.61254 9.33657 5.81854C9.02657 5.50854 8.74757 5.21454 8.49057 4.94454C7.69657 4.11054 7.12357 3.50754 6.63857 3.50054H6.63057C6.15157 3.50054 5.40757 4.01254 4.35457 5.06554C4.35757 5.06254 4.35857 5.06154 4.35957 5.06154ZM17.5616 22.5005C15.0696 22.5005 11.8206 20.5165 7.90457 16.6015C3.97257 12.6705 1.98557 9.41154 2.00057 6.91454C2.00957 5.26454 2.87457 4.41954 3.19957 4.10254C3.21657 4.08154 3.27457 4.02454 3.29457 4.00454C4.72957 2.56954 5.71557 1.97954 6.65757 2.00054C7.77457 2.01554 8.57057 2.85254 9.57757 3.91154C9.82657 4.17254 10.0956 4.45754 10.3966 4.75754C11.8556 6.21754 11.4406 7.40854 11.1056 8.36454C10.7416 9.40754 10.4266 10.3075 12.3126 12.1935C14.1986 14.0795 15.0976 13.7645 16.1396 13.3975C17.0966 13.0635 18.2846 12.6455 19.7466 14.1055C20.0436 14.4025 20.3236 14.6685 20.5836 14.9155C21.6466 15.9275 22.4866 16.7265 22.5006 17.8465C22.5116 18.8005 21.9316 19.7745 20.4996 21.2065L19.8656 20.7765L20.4026 21.2995C20.0856 21.6245 19.2426 22.4905 17.5916 22.5005H17.5616Z" fill="#545FDB"/>
</g>
</svg>
