<svg width="24" height="24" viewBox="0 0 24 24" fill="none" xmlns="http://www.w3.org/2000/svg">
<mask id="mask0" mask-type="alpha" maskUnits="userSpaceOnUse" x="2" y="2" width="10" height="14">
<path fill-rule="evenodd" clip-rule="evenodd" d="M2 2.00049H11.2953V15.1045H2V2.00049Z" fill="white"/>
</mask>
<g mask="url(#mask0)">
<path fill-rule="evenodd" clip-rule="evenodd" d="M6.72535 15.1045C6.51835 15.1045 6.31135 15.0185 6.16335 14.8505C0.821355 8.79849 1.58735 5.66449 3.17135 4.10049C3.18735 4.08049 3.24235 4.02649 3.25935 4.00849C4.66335 2.58349 5.62335 2.00049 6.56035 2.00049H6.58935C7.70035 2.01449 8.48535 2.85349 9.47935 3.91649C9.72335 4.17749 9.98935 4.46049 10.2834 4.75949C11.7134 6.21849 11.3074 7.40649 10.9804 8.36049C10.7444 9.05149 10.5384 9.64949 10.9124 10.5005C11.0794 10.8805 10.9074 11.3235 10.5284 11.4895C10.1464 11.6555 9.70535 11.4835 9.53935 11.1045C8.93035 9.71549 9.29435 8.65149 9.56135 7.87449C9.85035 7.03149 9.99535 6.60849 9.21335 5.81149C8.91035 5.50349 8.63635 5.21049 8.38335 4.94149C7.60435 4.10749 7.04035 3.50549 6.57035 3.50049H6.56235C6.09535 3.50049 5.36435 4.01049 4.32835 5.06149C4.32935 5.05949 4.33135 5.05849 4.33135 5.05849C4.33335 5.05849 4.28635 5.10749 4.22535 5.16749C2.08335 7.28349 5.22435 11.5205 7.28735 13.8585C7.56135 14.1685 7.53235 14.6425 7.22135 14.9175C7.07935 15.0425 6.90235 15.1045 6.72535 15.1045Z" fill="#545FDB"/>
</g>
<path fill-rule="evenodd" clip-rule="evenodd" d="M17.5522 22.5997C15.2612 22.5997 12.3232 20.8607 8.81516 17.4277C8.51916 17.1377 8.51316 16.6627 8.80316 16.3677C9.09416 16.0707 9.56916 16.0667 9.86416 16.3557C13.9232 20.3287 16.2952 21.1566 17.6172 21.0986C18.5822 21.0786 19.0382 20.5897 19.2572 20.3557C19.3182 20.2907 19.3662 20.2427 19.4022 20.2107C20.3952 19.1947 20.8962 18.4467 20.8902 17.9627C20.8832 17.4697 20.2882 16.8917 19.4642 16.0907C19.2032 15.8377 18.9212 15.5637 18.6222 15.2597C17.8552 14.4777 17.4752 14.6137 16.6402 14.9157C15.6122 15.2857 14.2022 15.7957 12.1552 14.1117C11.8342 13.8487 11.7872 13.3757 12.0512 13.0567C12.3132 12.7357 12.7892 12.6897 13.1062 12.9537C14.4972 14.0917 15.2162 13.8317 16.1322 13.5037C17.0262 13.1817 18.2512 12.7437 19.6932 14.2077C19.9832 14.5037 20.2572 14.7697 20.5092 15.0157C21.5522 16.0287 22.3752 16.8287 22.3892 17.9447C22.4022 18.8967 21.8332 19.8696 20.4312 21.3017L19.8052 20.8687L20.3532 21.3797C20.0502 21.7037 19.2462 22.5637 17.6512 22.5986C17.6172 22.5997 17.5842 22.5997 17.5522 22.5997Z" fill="#545FDB"/>
<path fill-rule="evenodd" clip-rule="evenodd" d="M4.63941 22.3994C4.45541 22.3994 4.27141 22.3324 4.12641 22.1964C3.82441 21.9134 3.80941 21.4384 4.09241 21.1364L19.0924 5.13643C19.3744 4.83343 19.8504 4.81843 20.1524 5.10243C20.4544 5.38543 20.4694 5.86043 20.1864 6.16243L5.18641 22.1624C5.03841 22.3204 4.83941 22.3994 4.63941 22.3994Z" fill="#545FDB"/>
</svg>
