<svg width="24" height="24" viewBox="0 0 24 24" fill="none" xmlns="http://www.w3.org/2000/svg">
<mask id="mask0" mask-type="alpha" maskUnits="userSpaceOnUse" x="4" y="2" width="17" height="21">
<path fill-rule="evenodd" clip-rule="evenodd" d="M4.00049 2.00049H20.9672V22.3561H4.00049V2.00049Z" fill="white"/>
</mask>
<g mask="url(#mask0)">
<path fill-rule="evenodd" clip-rule="evenodd" d="M12.4839 3.5C11.6359 3.5 6.28492 5.384 5.66792 5.899C5.48692 6.081 5.47992 6.399 5.51792 8.526C5.53692 9.552 5.56192 10.947 5.56192 12.879C5.56192 18.08 11.2839 20.389 12.4829 20.814C13.6809 20.387 19.4059 18.065 19.4059 12.879C19.4059 10.949 19.4309 9.555 19.4489 8.529C19.4879 6.4 19.4809 6.082 19.2879 5.889C18.6819 5.384 13.3319 3.5 12.4839 3.5ZM12.4839 22.356C12.4109 22.356 12.3379 22.346 12.2669 22.324C11.9319 22.223 4.06192 19.761 4.06192 12.879C4.06192 10.959 4.03692 9.572 4.01892 8.554C3.97292 6.014 3.96292 5.484 4.61792 4.828C5.40492 4.041 11.3509 2 12.4839 2C13.6169 2 19.5629 4.041 20.3489 4.828C21.0049 5.484 20.9949 6.014 20.9489 8.557C20.9309 9.575 20.9059 10.962 20.9059 12.879C20.9059 19.761 13.0359 22.223 12.7009 22.324C12.6299 22.346 12.5569 22.356 12.4839 22.356Z" fill="#545FDB"/>
</g>
<path fill-rule="evenodd" clip-rule="evenodd" d="M14.3627 14.5751C14.1707 14.5751 13.9787 14.5021 13.8327 14.3551L10.0747 10.5971C9.78173 10.3041 9.78173 9.83013 10.0747 9.53713C10.3677 9.24413 10.8417 9.24413 11.1347 9.53713L14.8927 13.2951C15.1857 13.5881 15.1857 14.0621 14.8927 14.3551C14.7467 14.5021 14.5547 14.5751 14.3627 14.5751Z" fill="#545FDB"/>
<path fill-rule="evenodd" clip-rule="evenodd" d="M10.6052 14.5751C10.4132 14.5751 10.2212 14.5021 10.0752 14.3551C9.78222 14.0621 9.78222 13.5881 10.0752 13.2951L13.8332 9.53713C14.1262 9.24413 14.6002 9.24413 14.8932 9.53713C15.1862 9.83013 15.1862 10.3041 14.8932 10.5971L11.1352 14.3551C10.9892 14.5021 10.7972 14.5751 10.6052 14.5751Z" fill="#545FDB"/>
</svg>
