<svg width="24" height="24" viewBox="0 0 24 24" fill="none" xmlns="http://www.w3.org/2000/svg">
<path fill-rule="evenodd" clip-rule="evenodd" d="M11.7495 22.4999C11.3355 22.4999 10.9995 22.1639 10.9995 21.7499V18.5889C10.9995 18.1749 11.3355 17.8389 11.7495 17.8389C12.1635 17.8389 12.4995 18.1749 12.4995 18.5889V21.7499C12.4995 22.1639 12.1635 22.4999 11.7495 22.4999Z" fill="#545FDB"/>
<path fill-rule="evenodd" clip-rule="evenodd" d="M11.7495 2.5C9.9235 2.5 8.4375 3.994 8.4375 5.831V10.519C8.4375 12.354 9.9235 13.849 11.7495 13.849C13.5755 13.849 15.0615 12.354 15.0615 10.519V5.831C15.0615 3.994 13.5755 2.5 11.7495 2.5ZM11.7495 15.349C9.0965 15.349 6.9375 13.182 6.9375 10.519V5.831C6.9375 3.167 9.0965 1 11.7495 1C14.4025 1 16.5615 3.167 16.5615 5.831V10.519C16.5615 13.182 14.4025 15.349 11.7495 15.349Z" fill="#545FDB"/>
<mask id="mask0" mask-type="alpha" maskUnits="userSpaceOnUse" x="3" y="9" width="18" height="11">
<path fill-rule="evenodd" clip-rule="evenodd" d="M3 9.80078H20.4995V19.3388H3V9.80078Z" fill="white"/>
</mask>
<g mask="url(#mask0)">
<path fill-rule="evenodd" clip-rule="evenodd" d="M11.7495 19.3388C6.92451 19.3388 2.99951 15.3968 2.99951 10.5508C2.99951 10.1368 3.33551 9.80078 3.74951 9.80078C4.16451 9.80078 4.49951 10.1368 4.49951 10.5508C4.49951 14.5688 7.75151 17.8388 11.7495 17.8388C15.7475 17.8388 18.9995 14.5688 18.9995 10.5508C18.9995 10.1368 19.3355 9.80078 19.7495 9.80078C20.1645 9.80078 20.4995 10.1368 20.4995 10.5508C20.4995 15.3968 16.5745 19.3388 11.7495 19.3388Z" fill="#545FDB"/>
</g>
</svg>
